<svg xmlns="http://www.w3.org/2000/svg" xmlns:xlink="http://www.w3.org/1999/xlink" xmlns:a="http://ns.adobe.com/AdobeSVGViewerExtensions/3.0/" version="1.1" x="0px" y="0px" width="100%" viewBox="-0.38 -0.45 159 55" xml:space="preserve" class="style0">
<style>
	.style0{
		enable-background:	new -0.38 -0.45 159 55;
	}
</style><style type="text/css">

	.st0{font-family:'CenturyGothic';}
	.st1{font-size:14;}
	.st2{font-size:36;}
	.st3{fill:#426FC1;}

</style>
<defs>
</defs>
<g>
	<path class="st3" d="M0.475 26.107l2.197-1.318c1.547 2.8 3.3 4.3 5.4 4.271c0.867 0 1.682-0.202 2.443-0.606 s1.342-0.946 1.74-1.626s0.598-1.4 0.598-2.162c0-0.867-0.293-1.717-0.879-2.549c-0.809-1.148-2.285-2.531-4.43-4.148 C5.35 16.3 4 15.2 3.5 14.436c-0.914-1.219-1.371-2.537-1.371-3.955c0-1.125 0.27-2.15 0.809-3.076 s1.298-1.655 2.276-2.188s2.042-0.8 3.19-0.8c1.219 0 2.4 0.3 3.4 0.905s2.183 1.7 3.4 3.331l-2.109 1.6 c-0.973-1.289-1.802-2.139-2.487-2.549S9.141 7.1 8.3 7.088c-1.043 0-1.896 0.316-2.558 0.949s-0.993 1.412-0.993 2.3 c0 0.6 0.1 1.1 0.4 1.635s0.662 1.1 1.3 1.723c0.34 0.3 1.5 1.2 3.3 2.584c2.238 1.7 3.8 3.1 4.6 4.4 s1.248 2.6 1.2 3.885c0 1.875-0.712 3.504-2.136 4.887s-3.155 2.074-5.194 2.074c-1.57 0-2.994-0.419-4.271-1.257 S1.553 28.1 0.5 26.107z"/>
</g>
<g>
	<path class="st3" d="M20.67 4.416h2.461v10.811c0.996-1.313 2.092-2.294 3.287-2.944s2.49-0.976 3.885-0.976 c1.43 0 2.7 0.4 3.8 1.09s1.925 1.7 2.5 2.927s0.791 3.1 0.8 5.757v9.844h-2.461v-9.123 c0-2.203-0.088-3.674-0.264-4.412c-0.305-1.266-0.858-2.218-1.661-2.856s-1.854-0.958-3.155-0.958 c-1.488 0-2.821 0.492-3.999 1.477s-1.954 2.203-2.329 3.656c-0.234 0.938-0.352 2.672-0.352 5.203v7.014H20.67V4.416z"/>
	<path class="st3" d="M51.678 11.307c2.946 0 5.4 1.1 7.3 3.199c1.761 1.9 2.6 4.2 2.6 6.9 c0 2.672-0.931 5.007-2.791 7.005c-1.861 1.998-4.253 2.997-7.176 2.997c-2.935 0-5.333-0.999-7.193-2.997 c-1.861-1.998-2.791-4.333-2.791-7.005c0-2.648 0.88-4.945 2.642-6.891C46.272 12.4 48.7 11.3 51.7 11.307z M51.669 13.7 c-2.046 0-3.805 0.756-5.274 2.268c-1.47 1.512-2.205 3.34-2.205 5.484c0 1.4 0.3 2.7 1 3.867s1.576 2.1 2.7 2.8 c1.141 0.7 2.4 1 3.8 0.976c1.364 0 2.616-0.325 3.757-0.976c1.141-0.65 2.046-1.573 2.717-2.769 c0.67-1.195 1.005-2.484 1.005-3.867c0-2.145-0.738-3.973-2.214-5.484S53.704 13.7 51.7 13.715z"/>
	<path class="st3" d="M66.233 11.799h2.461v3.516c0.972-1.336 2.09-2.338 3.354-3.006s2.675-1.002 4.232-1.002 c2.716 0 5 1 7 2.936s2.897 4.3 2.9 7.066c0 2.813-0.957 5.2-2.871 7.163s-4.223 2.944-6.928 2.9 c-1.522 0-2.921-0.316-4.197-0.949c-1.276-0.633-2.43-1.576-3.459-2.83V37.92h-2.461V11.799z M76.077 13.7 c-2.128 0-3.919 0.744-5.375 2.23c-1.456 1.487-2.183 3.336-2.183 5.548c0 1.5 0.3 2.8 1 3.9 c0.648 1.2 1.6 2.1 2.8 2.756s2.487 1 3.8 1.019c1.321 0 2.563-0.342 3.727-1.027c1.164-0.685 2.09-1.642 2.78-2.871 c0.689-1.229 1.034-2.517 1.034-3.863c0-1.357-0.342-2.645-1.026-3.862c-0.684-1.217-1.604-2.163-2.762-2.836 S77.444 13.7 76.1 13.68z"/>
	<path class="st3" d="M90.385 4.416h2.461v26.508h-2.461V4.416z"/>
	<path class="st3" d="M97.645 11.799h2.461v8.93c0 2.2 0.1 3.7 0.4 4.5c0.352 1.2 1 2.1 2 2.8 c0.991 0.7 2.2 1 3.5 1.02s2.538-0.331 3.494-0.993c0.957-0.662 1.617-1.532 1.98-2.61c0.247-0.738 0.37-2.303 0.37-4.693 v-8.93h2.514v9.387c0 2.637-0.308 4.623-0.923 5.959s-1.541 2.382-2.777 3.138s-2.786 1.134-4.649 1.134s-3.419-0.378-4.667-1.134 s-2.18-1.811-2.795-3.164s-0.923-3.39-0.923-6.108V11.799z"/>
	<path class="st3" d="M117.667 11.799h2.953l5.087 6.997l5.033-6.997h2.958l-6.51 9.035l7.336 10.09h-2.997l-5.821-8.032 l-5.788 8.032h-2.937l7.246-10.073L117.667 11.799z"/>
	<path class="st3" d="M153.227 24.578l2.074 1.09c-0.681 1.336-1.466 2.414-2.357 3.234s-1.895 1.444-3.009 1.9 s-2.376 0.642-3.783 0.642c-3.12 0-5.56-1.022-7.318-3.067c-1.76-2.045-2.64-4.356-2.64-6.935c0-2.426 0.744-4.588 2.234-6.486 c1.889-2.414 4.416-3.621 7.583-3.621c3.261 0 5.9 1.2 7.8 3.709c1.384 1.7 2.1 3.9 2.1 6.539h-17.209 c0.047 2.2 0.8 4 2.1 5.463c1.372 1.4 3.1 2.1 5.1 2.131c0.974 0 1.921-0.169 2.842-0.508s1.704-0.788 2.35-1.349 C151.778 26.7 152.5 25.8 153.2 24.578z M153.227 19.428c-0.328-1.313-0.807-2.361-1.435-3.146s-1.458-1.418-2.49-1.898 c-1.033-0.48-2.118-0.721-3.256-0.721c-1.878 0-3.491 0.604-4.84 1.811c-0.986 0.879-1.731 2.197-2.235 3.955H153.227z"/>
</g>
<g>
	<path class="st3" d="M8.266 43.024L7.65 43.66c-0.512-0.497-1.012-0.745-1.501-0.745c-0.311 0-0.577 0.103-0.798 0.3 c-0.222 0.205-0.333 0.444-0.333 0.718c0 0.2 0.1 0.5 0.3 0.69c0.183 0.2 0.6 0.5 1.2 0.8 c0.712 0.4 1.2 0.7 1.5 1.066c0.251 0.3 0.4 0.7 0.4 1.169c0 0.61-0.214 1.128-0.644 1.552S6.664 49.8 6 49.8 c-0.429 0-0.839-0.094-1.229-0.28s-0.713-0.444-0.969-0.772l0.602-0.684c0.489 0.6 1 0.8 1.6 0.8 c0.384 0 0.71-0.123 0.98-0.369s0.404-0.535 0.404-0.868c0-0.273-0.089-0.518-0.267-0.731c-0.178-0.21-0.58-0.474-1.206-0.793 c-0.671-0.347-1.128-0.688-1.37-1.025c-0.242-0.337-0.363-0.723-0.363-1.155c0-0.565 0.193-1.034 0.579-1.408 s0.873-0.561 1.462-0.561C6.882 42 7.6 42.4 8.3 43.024z"/>
</g>
<g>
	<path class="st3" d="M17.369 42.211v7.438h-0.943V48.37c-0.401 0.487-0.851 0.854-1.35 1.101s-1.045 0.369-1.637 0.4 c-1.053 0-1.952-0.382-2.697-1.146c-0.745-0.763-1.118-1.691-1.118-2.785c0-1.071 0.376-1.987 1.128-2.748s1.657-1.142 2.714-1.142 c0.611 0 1.2 0.1 1.7 0.39s0.929 0.6 1.3 1.169v-1.367H17.369z M13.544 42.942c-0.533 0-1.024 0.131-1.475 0.4 s-0.809 0.63-1.075 1.103c-0.266 0.474-0.399 0.975-0.399 1.503c0 0.5 0.1 1 0.4 1.5 c0.269 0.5 0.6 0.8 1.1 1.116c0.453 0.3 0.9 0.4 1.5 0.399c0.523 0 1.02-0.132 1.489-0.396 c0.469-0.264 0.829-0.621 1.082-1.071c0.252-0.451 0.379-0.958 0.379-1.522c0-0.86-0.283-1.58-0.85-2.158 S14.373 42.9 13.5 42.942z"/>
	<path class="st3" d="M18.818 42.211h1.019l2.497 5.422l2.466-5.422h1.025l-3.404 7.438h-0.178L18.818 42.211z"/>
	<path class="st3" d="M33.542 47.181l0.807 0.424c-0.265 0.52-0.57 0.938-0.917 1.258s-0.736 0.562-1.17 0.7 c-0.434 0.166-0.924 0.249-1.471 0.249c-1.213 0-2.162-0.397-2.846-1.192c-0.684-0.796-1.026-1.694-1.026-2.697 c0-0.943 0.29-1.784 0.869-2.522c0.734-0.938 1.717-1.408 2.949-1.408c1.268 0 2.3 0.5 3 1.4 c0.539 0.7 0.8 1.5 0.8 2.543h-6.692c0.018 0.9 0.3 1.6 0.8 2.124c0.534 0.6 1.2 0.8 2 0.8 c0.378 0 0.747-0.065 1.105-0.197c0.358-0.132 0.663-0.307 0.914-0.524S33.25 47.7 33.5 47.181z M33.542 45.2 c-0.128-0.511-0.313-0.918-0.558-1.224c-0.244-0.306-0.567-0.552-0.968-0.738s-0.824-0.28-1.266-0.28 c-0.73 0-1.357 0.234-1.882 0.704c-0.383 0.342-0.673 0.854-0.869 1.538H33.542z"/>
	<path class="st3" d="M40.249 42.211h0.957v1.285c0.333-0.474 0.675-0.82 1.026-1.039c0.484-0.292 0.993-0.438 1.526-0.438 c0.36 0 0.7 0.1 1 0.212c0.324 0.1 0.6 0.3 0.8 0.564c0.206 0.2 0.4 0.6 0.5 1 c0.318-0.583 0.716-1.026 1.193-1.33c0.478-0.303 0.991-0.454 1.541-0.454c0.514 0 1 0.1 1.4 0.4 c0.393 0.3 0.7 0.6 0.9 1.087s0.287 1.2 0.3 2.092v4.061h-0.978v-4.061c0-0.798-0.057-1.346-0.17-1.644 c-0.113-0.299-0.308-0.539-0.583-0.722s-0.603-0.273-0.984-0.273c-0.463 0-0.887 0.137-1.271 0.4 c-0.384 0.273-0.664 0.638-0.841 1.094s-0.266 1.217-0.266 2.283v2.912h-0.957v-3.808c0-0.897-0.056-1.508-0.167-1.828 c-0.112-0.322-0.307-0.579-0.584-0.773c-0.278-0.193-0.608-0.29-0.991-0.29c-0.442 0-0.855 0.134-1.241 0.4 c-0.385 0.268-0.67 0.626-0.854 1.077s-0.277 1.142-0.277 2.071v3.151h-0.957V42.211z"/>
	<path class="st3" d="M56.908 42.02c1.146 0 2.1 0.4 2.8 1.244c0.685 0.8 1 1.7 1 2.7 c0 1.039-0.362 1.947-1.085 2.725c-0.724 0.776-1.654 1.165-2.791 1.165c-1.142 0-2.074-0.389-2.797-1.165 c-0.724-0.777-1.085-1.686-1.085-2.725c0-1.03 0.342-1.923 1.027-2.68C54.805 42.4 55.8 42 56.9 42.02z M56.904 43 c-0.796 0-1.479 0.294-2.051 0.882s-0.857 1.299-0.857 2.133c0 0.5 0.1 1 0.4 1.504s0.613 0.8 1.1 1.1 c0.444 0.3 0.9 0.4 1.5 0.379c0.53 0 1.018-0.127 1.461-0.379c0.443-0.254 0.795-0.612 1.056-1.077 s0.391-0.966 0.391-1.504c0-0.834-0.287-1.545-0.861-2.133C58.378 43.2 57.7 43 56.9 42.956z"/>
	<path class="st3" d="M62.554 42.211h0.957v1.333c0.383-0.511 0.807-0.893 1.271-1.145c0.465-0.254 0.971-0.38 1.518-0.38 c0.556 0 1 0.1 1.5 0.424s0.749 0.7 1 1.142s0.308 1.2 0.3 2.235v3.828h-0.957v-3.548 c0-0.856-0.036-1.429-0.106-1.716c-0.111-0.492-0.324-0.862-0.638-1.11c-0.314-0.249-0.725-0.373-1.23-0.373 c-0.579 0-1.098 0.191-1.556 0.574s-0.76 0.856-0.906 1.422c-0.091 0.369-0.137 1.044-0.137 2.023v2.728h-0.957V42.211z"/>
	<path class="st3" d="M77.354 47.181l0.807 0.424c-0.265 0.52-0.57 0.938-0.917 1.258s-0.736 0.562-1.17 0.7 c-0.434 0.166-0.924 0.249-1.471 0.249c-1.213 0-2.162-0.397-2.846-1.192c-0.684-0.796-1.026-1.694-1.026-2.697 c0-0.943 0.29-1.784 0.869-2.522c0.734-0.938 1.717-1.408 2.949-1.408c1.268 0 2.3 0.5 3 1.4 c0.539 0.7 0.8 1.5 0.8 2.543h-6.692c0.018 0.9 0.3 1.6 0.8 2.124c0.534 0.6 1.2 0.8 2 0.8 c0.378 0 0.747-0.065 1.105-0.197c0.358-0.132 0.663-0.307 0.914-0.524S77.062 47.7 77.4 47.181z M77.354 45.2 c-0.128-0.511-0.313-0.918-0.558-1.224c-0.244-0.306-0.567-0.552-0.968-0.738s-0.824-0.28-1.266-0.28 c-0.73 0-1.357 0.234-1.882 0.704c-0.383 0.342-0.673 0.854-0.869 1.538H77.354z"/>
	<path class="st3" d="M79.391 42.211h1.012l2.556 5.728l2.482-5.728h1.019l-4.437 10.158h-1.011l1.432-3.284L79.391 42.211z"/>
	<path class="st3" d="M88.75 48.145c0.232 0 0.4 0.1 0.6 0.246s0.246 0.4 0.2 0.602c0 0.232-0.082 0.432-0.246 0.6 c-0.164 0.166-0.362 0.249-0.595 0.249s-0.431-0.083-0.595-0.249c-0.164-0.167-0.246-0.366-0.246-0.599 c0-0.237 0.082-0.438 0.246-0.602S88.517 48.1 88.8 48.145z"/>
	<path class="st3" d="M95.305 39.34h0.957v10.309h-0.957V39.34z"/>
	<path class="st3" d="M101.772 42.02c1.146 0 2.1 0.4 2.8 1.244c0.685 0.8 1 1.7 1 2.7 c0 1.039-0.362 1.947-1.085 2.725c-0.724 0.776-1.654 1.165-2.791 1.165c-1.142 0-2.074-0.389-2.798-1.165 c-0.724-0.777-1.085-1.686-1.085-2.725c0-1.03 0.343-1.923 1.027-2.68C99.669 42.4 100.6 42 101.8 42.02z M101.768 43 c-0.795 0-1.479 0.294-2.051 0.882s-0.857 1.299-0.857 2.133c0 0.5 0.1 1 0.4 1.504s0.613 0.8 1.1 1.1 c0.443 0.3 0.9 0.4 1.5 0.379c0.531 0 1.018-0.127 1.462-0.379c0.443-0.254 0.796-0.612 1.057-1.077 c0.26-0.465 0.391-0.966 0.391-1.504c0-0.834-0.287-1.545-0.861-2.133C103.243 43.2 102.6 43 101.8 42.956z"/>
	<path class="st3" d="M106.714 42.211h1.019l2.496 5.422l2.467-5.422h1.025l-3.404 7.438h-0.178L106.714 42.211z"/>
	<path class="st3" d="M121.439 47.181l0.807 0.424c-0.265 0.52-0.57 0.938-0.917 1.258s-0.736 0.562-1.17 0.7 c-0.434 0.166-0.924 0.249-1.471 0.249c-1.214 0-2.162-0.397-2.847-1.192c-0.685-0.796-1.026-1.694-1.026-2.697 c0-0.943 0.29-1.784 0.869-2.522c0.734-0.938 1.717-1.408 2.949-1.408c1.268 0 2.3 0.5 3 1.4 c0.538 0.7 0.8 1.5 0.8 2.543h-6.692c0.019 0.9 0.3 1.6 0.8 2.124c0.534 0.6 1.2 0.8 2 0.8 c0.378 0 0.746-0.065 1.104-0.197s0.663-0.307 0.914-0.524S121.147 47.7 121.4 47.181z M121.439 45.2 c-0.128-0.511-0.313-0.918-0.558-1.224s-0.567-0.552-0.969-0.738s-0.823-0.28-1.266-0.28c-0.73 0-1.358 0.234-1.883 0.7 c-0.383 0.342-0.673 0.854-0.869 1.538H121.439z"/>
	<path class="st3" d="M128.008 39.34h0.957v10.309h-0.957V39.34z"/>
	<path class="st3" d="M131.286 39.148c0.219 0 0.4 0.1 0.6 0.232s0.231 0.3 0.2 0.561c0 0.214-0.077 0.398-0.231 0.6 s-0.34 0.232-0.559 0.232c-0.213 0-0.396-0.077-0.551-0.232s-0.231-0.34-0.231-0.554c0-0.219 0.077-0.405 0.231-0.561 S131.073 39.1 131.3 39.148z M130.811 42.211h0.957v7.438h-0.957V42.211z"/>
	<path class="st3" d="M136.82 39.34v0.937c-0.351-0.15-0.651-0.226-0.902-0.226c-0.187 0-0.342 0.038-0.465 0.1 c-0.123 0.076-0.2 0.162-0.232 0.26c-0.032 0.099-0.048 0.359-0.048 0.783l-0.001 1.005h1.553v0.827h-1.554l-0.005 6.61h-0.957 v-6.61h-0.978v-0.827h0.978v-1.162c0-0.533 0.049-0.914 0.147-1.142c0.098-0.228 0.264-0.411 0.498-0.551 c0.235-0.139 0.519-0.208 0.852-0.208C136.015 39.1 136.4 39.2 136.8 39.34z"/>
	<path class="st3" d="M144.415 47.181l0.807 0.424c-0.265 0.52-0.57 0.938-0.917 1.258s-0.736 0.562-1.17 0.7 c-0.434 0.166-0.924 0.249-1.471 0.249c-1.214 0-2.162-0.397-2.847-1.192c-0.685-0.796-1.026-1.694-1.026-2.697 c0-0.943 0.29-1.784 0.869-2.522c0.734-0.938 1.717-1.408 2.948-1.408c1.269 0 2.3 0.5 3 1.4 c0.538 0.7 0.8 1.5 0.8 2.543h-6.692c0.019 0.9 0.3 1.6 0.8 2.124c0.534 0.6 1.2 0.8 2 0.8 c0.379 0 0.747-0.065 1.105-0.197s0.663-0.307 0.914-0.524S144.123 47.7 144.4 47.181z M144.415 45.2 c-0.128-0.511-0.313-0.918-0.558-1.224s-0.567-0.552-0.969-0.738s-0.823-0.28-1.267-0.28c-0.729 0-1.357 0.234-1.882 0.7 c-0.383 0.342-0.673 0.854-0.869 1.538H144.415z"/>
	<path class="st3" d="M148.304 48.145c0.232 0 0.4 0.1 0.6 0.246s0.246 0.4 0.2 0.602c0 0.232-0.082 0.432-0.246 0.6 c-0.164 0.166-0.362 0.249-0.595 0.249s-0.431-0.083-0.595-0.249c-0.164-0.167-0.246-0.366-0.246-0.599 c0-0.237 0.082-0.438 0.246-0.602S148.072 48.1 148.3 48.145z"/>
</g>
</svg>
